# xmcd
#
# Track frame offsets:
#	150
#	10527
#	41737
#	74327
#	88647
#	107050
#	147572
#	179840
#
# Disc length: 2561 seconds
#
# Revision: 1
# Processed by: cddbd v1.5PL3 Copyright (c) Steve Scherf et al.
# Submitted via: CDex 1.50Beta5
#
DISCID=6f09ff08
DTITLE=Teru's Symphonia - 七つの夜の物語
DYEAR=1900
DGENRE=Rock
TTITLE0=プロローグ
TTITLE1=お姫様逃げた!
TTITLE2=鬼たいじ
TTITLE3=大きな木
TTITLE4=未完の幸福
TTITLE5=月の夜のイカロス
TTITLE6=魔法の舞曲
TTITLE7=第7夜〜エピローグ
EXTD=
EXTT0=
EXTT1=
EXTT2=
EXTT3=
EXTT4=
EXTT5=
EXTT6=
EXTT7=
PLAYORDER=
